<svg xmlns="http://www.w3.org/2000/svg" version="1.1" xmlns:xlink="http://www.w3.org/1999/xlink" xmlns:svgjs="http://svgjs.dev/svgjs" width="2000" height="1283" viewBox="0 0 2000 1283"><g transform="matrix(1,0,0,1,1.1191273068706096,0.5203923940083541)"><svg viewBox="0 0 385 247" data-background-color="#ffffff" preserveAspectRatio="xMidYMid meet" height="1283" width="2000" xmlns="http://www.w3.org/2000/svg" xmlns:xlink="http://www.w3.org/1999/xlink"><g id="tight-bounds" transform="matrix(1,0,0,1,-0.2154320065725983,-0.09997365579206985)"><svg viewBox="0 0 385.4306859446789 247.2" height="247.2" width="385.4306859446789"><g><svg viewBox="0 0 385.4306859446789 247.2" height="247.2" width="385.4306859446789"><g><svg viewBox="0 0 385.4306859446789 247.2" height="247.2" width="385.4306859446789"><g id="textblocktransform"><svg viewBox="0 0 385.4306859446789 247.2" height="247.2" width="385.4306859446789" id="textblock"><g><svg viewBox="0 0 385.4306859446789 247.2" height="247.2" width="385.4306859446789"><path d="M384.528 53.02C382.716 27.36 377.552 20.227 377.552 20.227 361.697-6.202 341.91-0.506 324.135 3.292 292.751 3.446 261.494 9.091 230.183 12.119 164.462 12.581 98.179 4.986 32.784 23.717 26.642 29.464-6.373 24.846 1.093 56.304 3.05 69.39 10.189 83.913 9.971 95.922 10.95 98.026 12.309 93.202 12.889 96.23 14.918 104.39 18.234 100.541 20.952 105.365 17.165 118.246 19.883 128.971 22.474 140.21 17.908 143.135 12.055 141.749 9.428 151.449 9.156 158.479 7.688 157.145 6.076 156.837 4.898 156.632 2.524 157.402 2.923 159.608 4.282 167.152-1.553 171.514 2.107 178.904-0.411 186.91 3.847 193.838 3.267 202.511 3.195 204.255 3.593 205.744 4.227 206.154 7.036 208.361 2.941 212.672 3.376 217.342 32.186 249.262 63.443 227.195 92.961 241.872 100.625 231.608 94.863 245.516 97.925 243.36 100.317 240.846 102.057 251.263 104.757 245.362 105.173 243.668 104.539 239.665 106.025 240.435 106.804 240.846 107.493 240.743 107.602 238.382 107.765 234.841 106.333 237.048 105.953 235.201 110.066 225.861 109.051 248.081 112.911 247.158 112.729 244.438 111.606 240.538 113.907 241.051 116.19 237.151 116.263 233.918 118.292 242.693 118.365 244.592 118.727 245.926 119.307 246.85 125.649 237.305 131.955 250.237 138.605 245.926 142.682 241.205 146.596 248.492 150.727 246.696 152.177 245.259 153.644 242.693 155.039 247.004 172.127 247.928 190.337 244.079 206.536 247.158 249.825 241.41 296.085 249.518 341.729 241.923 352.492 238.998 363.672 234.841 374.164 231.506 374.164 231.506 382.662 222.371 382.662 181.316S384.474 145.393 384.746 112.703C385.018 80.013 386.286 78.679 384.474 53.02Z" opacity="1" fill="#ff0035" data-fill-palette-color="tertiary"></path><g transform="matrix(1,0,0,1,55.76832,26.230666666666668)"><svg width="273.89404594467885" viewBox="2.9 -35.2 50 35.550000000000004" height="194.73866666666666" data-palette-color="#ffffff"><path d="M15.2 0.35Q11.7 0.35 8.9-0.88 6.1-2.1 4.5-4.35 2.9-6.6 2.9-9.6L2.9-9.6 9-9.6Q9.2-7.35 10.78-5.9 12.35-4.45 15.2-4.45L15.2-4.45Q18.15-4.45 19.8-5.88 21.45-7.3 21.45-9.55L21.45-9.55Q21.45-11.3 20.43-12.4 19.4-13.5 17.88-14.1 16.35-14.7 13.65-15.4L13.65-15.4Q10.25-16.3 8.13-17.23 6-18.15 4.5-20.1 3-22.05 3-25.3L3-25.3Q3-28.3 4.5-30.55 6-32.8 8.7-34 11.4-35.2 14.95-35.2L14.95-35.2Q20-35.2 23.23-32.68 26.45-30.15 26.8-25.75L26.8-25.75 20.5-25.75Q20.35-27.65 18.7-29 17.05-30.35 14.35-30.35L14.35-30.35Q11.9-30.35 10.35-29.1 8.8-27.85 8.8-25.5L8.8-25.5Q8.8-23.9 9.78-22.88 10.75-21.85 12.25-21.25 13.75-20.65 16.35-19.95L16.35-19.95Q19.8-19 21.98-18.05 24.15-17.1 25.68-15.13 27.2-13.15 27.2-9.85L27.2-9.85Q27.2-7.2 25.78-4.85 24.35-2.5 21.63-1.07 18.9 0.35 15.2 0.35L15.2 0.35ZM47.15-34.75L52.9-34.75 52.9-9.7Q52.9-5.05 50.07-2.35 47.25 0.35 42.65 0.35L42.65 0.35Q38.05 0.35 35.22-2.35 32.4-5.05 32.4-9.7L32.4-9.7 38.15-9.7Q38.2-7.4 39.32-6.05 40.45-4.7 42.65-4.7L42.65-4.7Q44.85-4.7 46-6.08 47.15-7.45 47.15-9.7L47.15-9.7 47.15-34.75Z" opacity="1" transform="matrix(1,0,0,1,0,0)" fill="#ffffff" class="wordmark-text-0" data-fill-palette-color="quaternary" id="text-0"></path></svg></g></svg></g></svg></g></svg></g><g></g></svg></g><defs></defs></svg><rect width="385.4306859446789" height="247.2" fill="none" stroke="none" visibility="hidden"></rect></g></svg></g></svg>